<?xml version="1.0" encoding="utf-8"?>
<!-- Generator: Adobe Illustrator 27.5.0, SVG Export Plug-In . SVG Version: 6.00 Build 0)  -->
<svg version="1.1" id="Layer_1" xmlns="http://www.w3.org/2000/svg" xmlns:xlink="http://www.w3.org/1999/xlink" x="0px" y="0px"
	 viewBox="0 0 166.011 141.934" style="enable-background:new 0 0 166.011 141.934;" xml:space="preserve">
<g>
	<g>
		<path style="fill:#FFFFFF;" d="M50.083,121.676c11.959,0,22.968-4.967,30.746-13.353c1.667,6.471,4.883,12.486,9.485,17.591
			c7.957,8.828,19.338,13.891,31.225,13.891c10.395,0,20.38-3.836,28.119-10.805c17.205-15.513,18.587-42.134,3.078-59.343
			c-3.387-3.756-7.475-6.893-11.986-9.217c3.151-13.976-0.951-28.519-11.191-38.818c-7.945-7.99-18.526-12.391-29.793-12.391
			c-11.179,0-21.7,4.342-29.625,12.223c-4.899,4.872-8.464,10.776-10.478,17.298c-3.13-0.735-6.336-1.106-9.58-1.106
			c-23.17,0-42.021,18.848-42.021,42.014C8.063,102.827,26.913,121.676,50.083,121.676z"/>
		<path style="fill:#F1F1F1;" d="M49.577,121.03c11.958,0,22.967-4.968,30.745-13.352c1.667,6.47,4.883,12.484,9.485,17.59
			c7.957,8.827,19.338,13.891,31.225,13.891c10.396,0,20.381-3.836,28.119-10.805c17.205-15.514,18.588-42.135,3.078-59.344
			c-3.387-3.756-7.475-6.892-11.986-9.217c3.151-13.975-0.95-28.519-11.191-38.818c-7.945-7.989-18.526-12.39-29.792-12.39
			c-11.18,0-21.701,4.341-29.626,12.223c-4.899,4.872-8.464,10.776-10.478,17.297c-3.13-0.735-6.336-1.106-9.579-1.106
			c-23.171,0-42.021,18.848-42.021,42.015C7.556,102.182,26.406,121.03,49.577,121.03z"/>
		<path style="fill:#E2E2E2;" d="M49.07,120.385c11.959,0,22.967-4.967,30.746-13.353c1.667,6.471,4.883,12.486,9.485,17.591
			c7.957,8.827,19.338,13.891,31.224,13.891c10.396,0,20.381-3.837,28.12-10.805c17.205-15.514,18.587-42.134,3.077-59.344
			c-3.386-3.755-7.474-6.892-11.985-9.217c3.151-13.975-0.951-28.519-11.191-38.817C120.601,12.341,110.02,7.94,98.753,7.94
			c-11.179,0-21.7,4.342-29.625,12.222c-4.899,4.873-8.464,10.777-10.478,17.297c-3.13-0.734-6.336-1.105-9.58-1.105
			C25.9,36.354,7.05,55.202,7.05,78.367C7.05,101.535,25.9,120.385,49.07,120.385z"/>
		<path style="fill:#D4D4D4;" d="M48.563,119.739c11.958,0,22.968-4.968,30.746-13.352c1.668,6.471,4.883,12.485,9.485,17.59
			c7.957,8.828,19.338,13.892,31.225,13.892c10.395,0,20.38-3.837,28.12-10.805c17.203-15.515,18.586-42.135,3.077-59.344
			c-3.387-3.756-7.475-6.894-11.986-9.217c3.15-13.975-0.951-28.519-11.191-38.818c-7.945-7.99-18.526-12.39-29.793-12.39
			c-11.179,0-21.7,4.341-29.625,12.223c-4.899,4.871-8.464,10.775-10.479,17.297c-3.129-0.735-6.336-1.106-9.579-1.106
			c-23.17,0-42.021,18.848-42.021,42.014C6.543,100.891,25.393,119.739,48.563,119.739z"/>
		<path style="fill:#C5C5C5;" d="M48.058,119.093c11.958,0,22.968-4.968,30.746-13.352c1.668,6.471,4.882,12.485,9.485,17.59
			c7.956,8.828,19.338,13.891,31.224,13.891c10.396,0,20.381-3.837,28.12-10.805c17.205-15.514,18.587-42.134,3.077-59.342
			c-3.387-3.757-7.475-6.893-11.986-9.219c3.151-13.975-0.95-28.517-11.191-38.817C119.588,11.05,109.006,6.648,97.74,6.648
			c-11.18,0-21.7,4.343-29.626,12.224c-4.898,4.871-8.464,10.776-10.476,17.297c-3.13-0.734-6.336-1.106-9.58-1.106
			c-23.17,0-42.021,18.847-42.021,42.014C6.036,100.244,24.888,119.093,48.058,119.093z"/>
		<path style="fill:#B7B7B7;" d="M47.551,118.448c11.959,0,22.969-4.968,30.746-13.353c1.668,6.472,4.884,12.486,9.485,17.592
			c7.957,8.827,19.339,13.891,31.225,13.891c10.397,0,20.381-3.836,28.12-10.805c17.204-15.514,18.586-42.135,3.077-59.344
			c-3.387-3.756-7.475-6.893-11.985-9.217c3.15-13.976-0.952-28.519-11.191-38.817c-7.946-7.991-18.526-12.39-29.794-12.39
			c-11.179,0-21.7,4.34-29.625,12.222c-4.899,4.871-8.464,10.775-10.478,17.297c-3.13-0.735-6.336-1.106-9.58-1.106
			c-23.169,0-42.02,18.848-42.02,42.015S24.382,118.448,47.551,118.448z"/>
		<path style="fill:#A8A8A8;" d="M47.044,117.803c11.959,0,22.968-4.969,30.746-13.353c1.668,6.471,4.883,12.485,9.485,17.592
			c7.957,8.826,19.339,13.891,31.225,13.891c10.395,0,20.381-3.838,28.121-10.805c17.204-15.515,18.585-42.136,3.076-59.345
			c-3.387-3.756-7.474-6.892-11.986-9.217c3.151-13.974-0.951-28.518-11.191-38.816c-7.945-7.991-18.526-12.391-29.793-12.391
			c-11.178,0-21.7,4.341-29.625,12.222c-4.899,4.872-8.464,10.776-10.477,17.297c-3.131-0.734-6.336-1.106-9.581-1.106
			c-23.17,0-42.021,18.848-42.021,42.015C5.023,98.953,23.874,117.803,47.044,117.803z"/>
		<path style="fill:#9A9A9A;" d="M46.538,117.156c11.958,0,22.968-4.968,30.746-13.352c1.667,6.47,4.883,12.485,9.484,17.591
			c7.957,8.827,19.34,13.891,31.226,13.891c10.396,0,20.38-3.836,28.119-10.805c17.204-15.514,18.587-42.135,3.078-59.343
			c-3.388-3.757-7.476-6.894-11.986-9.218c3.15-13.975-0.951-28.518-11.191-38.817c-7.946-7.99-18.526-12.39-29.793-12.39
			c-11.179,0-21.7,4.341-29.625,12.222c-4.9,4.871-8.465,10.775-10.479,17.298c-3.13-0.736-6.336-1.107-9.579-1.107
			c-23.171,0-42.021,18.849-42.021,42.014C4.518,98.308,23.367,117.156,46.538,117.156z"/>
		<path style="fill:#8B8B8B;" d="M46.031,116.511c11.96,0,22.968-4.968,30.747-13.352c1.667,6.471,4.882,12.485,9.484,17.591
			c7.957,8.827,19.339,13.891,31.225,13.891c10.396,0,20.381-3.837,28.12-10.805c17.204-15.514,18.586-42.135,3.077-59.344
			c-3.387-3.756-7.475-6.892-11.986-9.217c3.151-13.975-0.951-28.519-11.191-38.817c-7.945-7.99-18.526-12.391-29.793-12.391
			c-11.179,0-21.7,4.342-29.625,12.223c-4.899,4.872-8.464,10.776-10.477,17.297c-3.13-0.735-6.335-1.106-9.58-1.106
			c-23.17,0-42.021,18.848-42.021,42.015C4.011,97.662,22.861,116.511,46.031,116.511z"/>
		<path style="fill:#7D7D7D;" d="M45.524,115.865c11.96,0,22.968-4.968,30.747-13.353c1.667,6.471,4.882,12.486,9.484,17.591
			c7.957,8.829,19.34,13.891,31.225,13.891c10.396,0,20.381-3.836,28.12-10.805c17.205-15.513,18.586-42.134,3.077-59.343
			c-3.386-3.756-7.475-6.893-11.986-9.217c3.151-13.975-0.951-28.519-11.191-38.818C117.055,7.821,106.474,3.42,95.207,3.42
			c-11.179,0-21.699,4.342-29.624,12.223c-4.9,4.872-8.465,10.777-10.478,17.298c-3.131-0.735-6.335-1.106-9.581-1.106
			c-23.17,0-42.021,18.848-42.021,42.014C3.504,97.016,22.354,115.865,45.524,115.865z"/>
		<path style="fill:#6E6E6E;" d="M45.019,115.219c11.959,0,22.968-4.968,30.746-13.351c1.667,6.471,4.883,12.485,9.485,17.591
			c7.956,8.827,19.339,13.891,31.224,13.891c10.396,0,20.381-3.837,28.121-10.805c17.204-15.515,18.586-42.136,3.076-59.344
			c-3.386-3.757-7.474-6.893-11.985-9.218c3.15-13.975-0.951-28.519-11.191-38.816c-7.946-7.991-18.526-12.391-29.793-12.391
			C83.522,2.775,73,7.116,65.076,14.998c-4.9,4.871-8.465,10.776-10.478,17.297c-3.13-0.736-6.335-1.106-9.58-1.106
			c-23.17,0-42.021,18.847-42.021,42.014C2.998,96.37,21.849,115.219,45.019,115.219z"/>
		<path style="fill:#606060;" d="M44.512,114.573c11.96,0,22.968-4.967,30.747-13.352c1.667,6.471,4.882,12.486,9.484,17.591
			c7.957,8.827,19.339,13.891,31.225,13.891c10.396,0,20.381-3.836,28.12-10.805c17.204-15.513,18.586-42.134,3.077-59.343
			c-3.386-3.756-7.475-6.893-11.986-9.217c3.151-13.976-0.951-28.52-11.191-38.818c-7.945-7.99-18.526-12.391-29.793-12.391
			c-11.179,0-21.7,4.342-29.625,12.223c-4.899,4.872-8.464,10.776-10.477,17.297c-3.13-0.734-6.335-1.105-9.58-1.105
			c-23.17,0-42.021,18.848-42.021,42.014C2.491,95.725,21.342,114.573,44.512,114.573z"/>
	</g>
	<path style="fill:#FFFFFF;" d="M44.512,114.573c11.96,0,22.968-4.967,30.747-13.352c1.667,6.471,4.882,12.486,9.484,17.591
		c7.957,8.827,19.339,13.891,31.225,13.891c10.396,0,20.381-3.836,28.12-10.805c17.204-15.513,18.586-42.134,3.077-59.343
		c-3.386-3.756-7.475-6.893-11.986-9.217c3.151-13.976-0.951-28.52-11.191-38.818c-7.945-7.99-18.526-12.391-29.793-12.391
		c-11.179,0-21.7,4.342-29.625,12.223c-4.899,4.872-8.464,10.776-10.477,17.297c-3.13-0.734-6.335-1.105-9.58-1.105
		c-23.17,0-42.021,18.848-42.021,42.014C2.491,95.725,21.342,114.573,44.512,114.573z"/>
	<g>
		<g>
			<g>
				<g style="opacity:0.5;">
					<path style="fill:#FFFFFF;" d="M119.251,69.346c-13.922,13.834-36.422,13.773-50.269-0.141
						c-13.833-13.923-13.768-36.417,0.154-50.257c13.918-13.843,36.42-13.778,50.259,0.139
						C133.232,33.006,133.167,55.51,119.251,69.346z"/>
					<path style="fill:#BFBFBF;" d="M94.188,81.31c-9.966,0-19.329-3.892-26.359-10.954c-14.442-14.539-14.37-38.116,0.161-52.564
						c7.01-6.972,16.317-10.812,26.205-10.812c9.969,0,19.327,3.893,26.354,10.96c14.449,14.532,14.382,38.112-0.149,52.561
						C113.385,77.47,104.076,81.31,94.188,81.31z M94.194,10.236c-9.021,0-17.511,3.505-23.909,9.865
						c-13.258,13.182-13.324,34.693-0.147,47.955c6.413,6.445,14.955,9.996,24.05,9.996c9.021,0,17.516-3.502,23.916-9.861
						c13.258-13.184,13.318-34.698,0.136-47.956C111.829,13.788,103.289,10.236,94.194,10.236z"/>
				</g>
				<path style="fill:#DE76B9;" d="M98.036,36.813c-0.636-3.497-1.032-7.157,0.306-10.515c1.163-2.956,3.028-6.049,5.423-8.544
					c-4.535,1.06-9.584,1.227-13.869,2.231c-5.674,1.337-10.557,4.659-13.836,9.505c-2.929,4.298-3.376,9.798-1.524,14.61
					c2.673,6.923,6.663,14.08,0.939,20.727c-0.446,0.52,0.631,0.631,0.894,0.57c5-1.113,8.642-1.683,12.846-4.862
					c4.016-3.039,6.475-6.988,7.682-11.85C97.87,44.824,97.949,40.807,98.036,36.813z"/>
				<path style="fill:#B9E297;" d="M108.49,56.487c3.12-5.677,2.979-12.362,0.576-18.224c-2.86-6.953-10.911-15.543-2.406-21.868
					c-5.005,1.51-9.847,3.487-13.991,6.382c-2.733,2.366-5.058,5.193-6.258,8.577c-2.042,5.769-0.929,11.43-0.164,17.301
					c0.449,3.404-0.05,6.877-1.141,10.105c-1.256,3.721-5.833,4.964-8.986,6.586c-0.456,0.233-0.451,0.726,0.088,0.846
					C88.466,68.884,101.68,68.929,108.49,56.487z"/>
				<path style="fill:#F6A1A1;" d="M118.026,42.928c-2.854-6.191-7.232-11.573-10.826-17.692c-1.17-2.008-2.576-4.722-2.848-7.177
					c-0.867,0.921-1.959,1.976-2.215,2.355c-1.042,1.532-1.174,3.274-1.282,5.062c-0.355,5.566,2.711,10.922,3.132,16.444
					c0.508,6.635-1.268,12.473-6.195,16.974c-5.803,5.293-12.744,6.462-20.253,6.736c-0.499,0.016-1.242,0.626-0.528,0.989
					c6.154,3.139,12.909,3.174,19.552,1.751c7.58-1.619,15.688-5.094,19.802-11.911C119.21,51.751,119.26,47.414,118.026,42.928z"/>
				<path style="opacity:0.5;fill:#A6A6A6;" d="M119.396,19.087C105.557,5.17,83.055,5.106,69.137,18.948
					c-13.922,13.84-13.987,36.334-0.154,50.257c13.847,13.914,36.347,13.975,50.269,0.141
					C133.167,55.51,133.232,33.006,119.396,19.087z M75.69,57.106C65.519,46.878,65.56,30.345,75.795,20.173
					c10.232-10.168,26.768-10.124,36.938,0.107c10.156,10.226,10.116,26.758-0.109,36.929
					C102.388,67.379,85.857,67.338,75.69,57.106z"/>
			</g>
		</g>
		<g>
			<g>
				<g style="opacity:0.5;">
					<path style="fill:#FFFFFF;" d="M139.748,117.089c-14.586,13.132-37.045,11.97-50.191-2.614
						C76.414,99.9,77.585,77.426,92.165,64.291c14.579-13.144,37.044-11.979,50.19,2.603
						C155.496,81.475,154.327,103.943,139.748,117.089z"/>
					<path style="fill:#BFBFBF;" d="M115.968,127.853c-10.517,0-20.583-4.479-27.622-12.288
						c-6.646-7.372-10.024-16.893-9.509-26.806c0.518-9.915,4.863-19.034,12.237-25.677c6.84-6.169,15.673-9.563,24.873-9.563
						c10.513,0,20.578,4.478,27.616,12.283c13.717,15.221,12.496,38.77-2.724,52.493
						C133.994,124.459,125.162,127.853,115.968,127.853z M115.947,56.776c-8.392,0-16.452,3.099-22.69,8.725
						c-6.729,6.061-10.695,14.381-11.165,23.425c-0.471,9.045,2.609,17.732,8.675,24.458c6.422,7.124,15.605,11.211,25.201,11.211
						c8.389,0,16.448-3.096,22.693-8.719c13.883-12.521,14.997-34.008,2.483-47.894C134.724,60.86,125.539,56.776,115.947,56.776z"
						/>
				</g>
				<path style="fill:#F89F62;" d="M120.154,83.549c-0.457-3.522-0.686-7.198,0.81-10.486c1.321-2.892,3.338-5.894,5.845-8.27
					c-4.579,0.834-9.624,0.759-13.952,1.55c-5.749,1.056-10.782,4.142-14.297,8.816c-3.13,4.149-3.845,9.625-2.23,14.52
					c2.336,7.05,5.963,14.384-0.081,20.748c-0.467,0.496,0.598,0.665,0.866,0.612c5.049-0.867,8.71-1.255,13.066-4.229
					c4.162-2.839,6.803-6.657,8.258-11.456C119.591,91.546,119.87,87.534,120.154,83.549z"/>
				<path style="fill:#ADDFBD;" d="M129.634,103.709c3.391-5.516,3.576-12.192,1.469-18.174c-2.512-7.079-10.144-16.05-1.332-21.957
					c-5.071,1.262-10.015,3.002-14.29,5.691c-2.854,2.223-5.308,4.942-6.67,8.258c-2.327,5.652-1.491,11.369-1.004,17.274
					c0.278,3.418-0.398,6.858-1.639,10.032c-1.435,3.66-6.069,4.68-9.301,6.142c-0.47,0.211-0.492,0.703,0.044,0.843
					C109.028,115.105,122.216,115.803,129.634,103.709z"/>
				<path style="fill:#9488C0;" d="M139.822,90.638c-2.554-6.329-6.665-11.914-9.948-18.198c-1.078-2.069-2.345-4.845-2.491-7.312
					c-0.92,0.874-2.046,1.88-2.323,2.241c-1.113,1.49-1.329,3.217-1.538,4.995c-0.625,5.542,2.175,11.037,2.328,16.58
					c0.188,6.651-1.881,12.397-7.019,16.647c-6.053,4.998-13.04,5.837-20.547,5.734c-0.517,0.001-1.28,0.569-0.593,0.966
					c5.994,3.436,12.745,3.799,19.443,2.7c7.641-1.249,15.916-4.313,20.366-10.925C140.57,99.501,140.844,95.181,139.822,90.638z"/>
				<path style="opacity:0.5;fill:#A6A6A6;" d="M142.355,66.894c-13.146-14.582-35.61-15.746-50.19-2.603
					c-14.58,13.135-15.751,35.609-2.608,50.184c13.146,14.584,35.605,15.746,50.191,2.614
					C154.327,103.943,155.496,81.475,142.355,66.894z M96.843,102.727c-9.66-10.714-8.8-27.228,1.912-36.883
					c10.711-9.661,27.23-8.803,36.882,1.906c9.645,10.711,8.793,27.233-1.914,36.891
					C123.004,114.289,106.495,113.439,96.843,102.727z"/>
			</g>
		</g>
		<g>
			<g>
				<g style="opacity:0.5;">
					<path style="fill:#FFFFFF;" d="M80.047,72.557c0,19.626-15.907,35.537-35.535,35.537c-19.627,0-35.543-15.911-35.543-35.537
						c0-19.627,15.916-35.536,35.543-35.536C64.14,37.021,80.047,52.93,80.047,72.557z"/>
					<path style="fill:#BFBFBF;" d="M44.512,109.724c-20.498,0-37.17-16.672-37.17-37.167c0-20.491,16.672-37.164,37.17-37.164
						c20.493,0,37.164,16.673,37.164,37.164C81.676,93.052,65.005,109.724,44.512,109.724z M44.512,38.65
						c-18.7,0-33.914,15.211-33.914,33.906c0,18.698,15.214,33.909,33.914,33.909c18.695,0,33.907-15.211,33.907-33.909
						C78.419,53.861,63.207,38.65,44.512,38.65z"/>
				</g>
				<path style="fill:#F99F45;" d="M42.019,64.66c-2.925-2.02-5.808-4.315-7.246-7.624c-1.267-2.92-2.146-6.424-2.231-9.878
					c-2.444,3.967-5.879,7.653-8.187,11.397c-3.063,4.981-4.136,10.785-3.029,16.523c0.988,5.106,4.569,9.301,9.295,11.38
					c6.803,2.987,14.679,5.208,15.361,13.951c0.05,0.68,0.882,0,1.031-0.231c2.733-4.335,4.901-7.311,5.61-12.536
					c0.67-4.99-0.393-9.509-2.979-13.81C47.578,70.429,44.8,67.536,42.019,64.66z"/>
				<path style="fill:#89CCE1;" d="M63.348,71.12c-1.836-6.212-6.671-10.833-12.524-13.258c-6.946-2.875-18.715-3.222-17.195-13.72
					c-2.465,4.617-4.477,9.451-5.343,14.429c-0.258,3.605,0.116,7.247,1.664,10.485c2.647,5.508,7.447,8.716,12.16,12.312
					c2.719,2.082,4.837,4.882,6.353,7.932c1.758,3.511-0.582,7.639-1.663,11.016c-0.163,0.496,0.199,0.842,0.655,0.542
					C58.021,94.049,67.358,84.721,63.348,71.12z"/>
				<path style="fill:#3F73B3;" d="M60.453,54.796c-6.408-2.339-13.31-3.028-20.175-4.796c-2.263-0.579-5.175-1.502-7.106-3.044
					c0.044,1.265,0.02,2.784,0.118,3.228c0.347,1.825,1.487,3.143,2.677,4.482c3.699,4.179,9.648,5.786,13.875,9.379
					c5.064,4.313,7.946,9.692,7.659,16.357c-0.34,7.845-4.402,13.594-9.494,19.104c-0.347,0.375-0.438,1.329,0.325,1.08
					c6.56-2.149,11.349-6.922,15.023-12.626c4.193-6.521,7.454-14.719,5.516-22.452C67.533,60.174,64.505,57.076,60.453,54.796z"/>
				<path style="opacity:0.5;fill:#A6A6A6;" d="M44.512,37.021c-19.627,0-35.543,15.909-35.543,35.536
					c0,19.626,15.916,35.537,35.543,35.537c19.628,0,35.535-15.911,35.535-35.537C80.047,52.93,64.14,37.021,44.512,37.021z
					 M40.656,94.813c-14.43,0-26.121-11.689-26.121-26.116c0-14.421,11.691-26.11,26.121-26.11c14.422,0,26.106,11.69,26.106,26.11
					C66.762,83.124,55.078,94.813,40.656,94.813z"/>
			</g>
		</g>
	</g>
</g>
</svg>
